# xmcd CD database file
#
# Track frame offsets:
#	150
#	15780
#	29107
#	45050
#	56280
#	75730
#	95862
#	109322
#	123092
#	136590
#	152445
#	167845
#
# Disc length: 2590 seconds
#
# Revision: 4
# Processed by: cddbd v1.5.2PL0 Copyright (c) Steve Scherf et al.
# Submitted via: CDex 1.60beta1
#
DISCID=840a1c0c
DTITLE=Sweethearts Of The Rodeo - Rodeo Waltz
DYEAR=1993
DGENRE=Country
TTITLE0=Get Rhythm
TTITLE1=Long Time Gone
TTITLE2=Things Will Grow
TTITLE3=Hoping That You're Hoping
TTITLE4=Jenny Dreamed Of Trains
TTITLE5=Brand New Tennessee Waltz
TTITLE6=Bluegrass Boy
TTITLE7=Please Help Me I'm Falling
TTITLE8=Deep River Blues
TTITLE9=There One Morning
TTITLE10=Steel Rail Blues
TTITLE11=Broken Arrow
EXTD=YEAR: 1993
EXTT0=
EXTT1=
EXTT2=
EXTT3=
EXTT4=
EXTT5=
EXTT6=
EXTT7=
EXTT8=
EXTT9=
EXTT10=
EXTT11=
PLAYORDER=
